<svg width="63" height="63" viewBox="0 0 63 63" fill="none" xmlns="http://www.w3.org/2000/svg">
<path d="M31.5 60.375C47.447 60.375 60.375 47.447 60.375 31.5C60.375 15.553 47.447 2.625 31.5 2.625C15.553 2.625 2.625 15.553 2.625 31.5C2.625 47.447 15.553 60.375 31.5 60.375Z" stroke="#01A4F5" stroke-width="4.8125" stroke-linecap="round" stroke-linejoin="round"/>
<path d="M31.5001 18.6184V50.7017L15.8418 23.8977C15.5707 23.3571 15.4407 22.7604 15.46 22.1572C15.4808 21.5556 15.6509 20.9669 15.9557 20.4456C16.2605 19.9242 16.692 19.4847 17.2101 19.1654C17.7283 18.8462 18.3186 18.6585 18.9282 18.6184H31.5001Z" stroke="#01A4F5" stroke-width="4.8125" stroke-linecap="round" stroke-linejoin="round"/>
<path d="M31.5 50.7017L47.1599 23.8977C47.4294 23.3571 47.5593 22.7604 47.5401 22.1572C47.5192 21.5556 47.3492 20.9669 47.0444 20.4456C46.7396 19.9242 46.3081 19.4847 45.7899 19.1654C45.2718 18.8462 44.6814 18.6585 44.0719 18.6184H31.5V50.7017Z" stroke="#01A4F5" stroke-width="4.8125" stroke-linecap="round" stroke-linejoin="round"/>
</svg>
