<svg width="56" height="46" viewBox="0 0 56 46" fill="none" xmlns="http://www.w3.org/2000/svg">
<path d="M9.91666 12.6666C12.7712 12.6666 15.0833 10.3545 15.0833 7.49991C15.0833 4.64533 12.7712 2.33325 9.91666 2.33325C7.06208 2.33325 4.75 4.64533 4.75 7.49991C4.75 10.3545 7.06208 12.6666 9.91666 12.6666Z" stroke="#0098EA" stroke-width="3.875" stroke-linecap="round" stroke-linejoin="round"/>
<path d="M46.0833 43.6666C48.9379 43.6666 51.2499 41.3545 51.2499 38.4999C51.2499 35.6453 48.9379 33.3333 46.0833 33.3333C43.2287 33.3333 40.9166 35.6453 40.9166 38.4999C40.9166 41.3545 43.2287 43.6666 46.0833 43.6666Z" stroke="#0098EA" stroke-width="3.875" stroke-linecap="round" stroke-linejoin="round"/>
<path d="M15.0834 7.5H40.9167C45.1972 7.5 48.6666 10.9694 48.6666 15.25V23" stroke="#0098EA" stroke-width="3.875" stroke-linecap="round" stroke-linejoin="round"/>
<path d="M40.9166 38.5H15.0834C10.8028 38.5 7.33337 35.0306 7.33337 30.75V23" stroke="#0098EA" stroke-width="3.875" stroke-linecap="round" stroke-linejoin="round"/>
<path d="M12.4483 28.2699L7.30745 21.9666L2.16663 28.2699" stroke="#0098EA" stroke-width="3.875" stroke-linecap="round" stroke-linejoin="round"/>
<path d="M43.4999 17.8333L48.6407 24.1366L53.7815 17.8333" stroke="#0098EA" stroke-width="3.875" stroke-linecap="round" stroke-linejoin="round"/>
</svg>
