<svg width="64" height="63" viewBox="0 0 64 63" fill="none" xmlns="http://www.w3.org/2000/svg">
<path d="M31.8414 4.86402C46.4994 4.86402 58.384 16.7487 58.384 31.4066H63.2099C63.2099 14.0815 49.1665 0.0380859 31.8414 0.0380859V4.86402ZM5.29877 31.4066C5.29877 16.7487 17.1834 4.86402 31.8414 4.86402V0.0380859C14.5163 0.0380859 0.472839 14.0815 0.472839 31.4066H5.29877ZM31.8414 57.9493C17.1834 57.9493 5.29877 46.0646 5.29877 31.4066H0.472839C0.472839 48.7317 14.5163 62.7752 31.8414 62.7752V57.9493ZM58.384 31.4066C58.384 46.0646 46.4994 57.9493 31.8414 57.9493V62.7752C49.1665 62.7752 63.2099 48.7317 63.2099 31.4066H58.384Z" fill="#0097EA"/>
<path d="M29.335 44.1245V48.0239H34.161V44.1245H29.335ZM31.6869 41.7116C31.5678 41.7148 31.4488 41.718 31.3265 41.718V46.5439C31.4874 46.5439 31.6483 46.5407 31.8059 46.5375L31.6869 41.7116ZM37.8576 38.1597C37.8576 39.3565 36.5707 41.7116 31.748 41.7116V46.5375C37.9702 46.5375 42.6836 43.1304 42.6836 38.1597H37.8576ZM29.335 15.0531V18.9653H34.161V15.0531H29.335ZM31.8188 16.5556C31.7995 16.5556 31.7802 16.5524 31.7416 16.5524C31.7094 16.5524 31.6611 16.5459 31.6097 16.5459C31.5067 16.5427 31.3587 16.5427 31.1882 16.5524L31.4681 21.3686C31.4295 21.3686 31.4391 21.3719 31.4681 21.3686C31.4874 21.3686 31.5099 21.3751 31.5453 21.3751C31.5775 21.3751 31.6257 21.3783 31.6772 21.3783L31.8188 16.5556ZM42.2428 23.5789C41.5865 20.8635 38.4786 16.7486 31.8188 16.5556L31.6772 21.3783C36.1042 21.507 37.3911 24.0583 37.552 24.7146L42.2428 23.5789ZM31.3265 41.718C28.2862 41.718 26.2722 39.3533 25.6866 38.1564L21.3529 40.2766C22.3696 42.355 25.7188 46.5439 31.3265 46.5439V41.718ZM30.9147 33.6233C34.2253 34.196 35.9498 34.907 36.8378 35.6212C37.523 36.1746 37.8576 36.8374 37.8576 38.1597H42.6836C42.6836 35.7467 41.9468 33.5396 39.862 31.8634C37.9767 30.3481 35.2291 29.473 31.7384 28.8681L30.9147 33.6233ZM21.6875 25.1908C21.6875 25.7248 21.6747 27.5684 23.0292 29.4601C24.3997 31.3744 26.8609 32.9219 30.9147 33.6233L31.7384 28.8681C28.5307 28.3148 27.3757 27.2434 26.951 26.6482C26.507 26.0305 26.5135 25.4739 26.5135 25.1908H21.6875ZM31.1882 16.5524C26.9736 16.7969 24.3965 18.4538 22.997 20.6126C21.694 22.6266 21.6875 24.6728 21.6875 25.1908H26.5135C26.5135 24.8884 26.5328 24.0326 27.0475 23.2379C27.4658 22.5912 28.505 21.5424 31.4681 21.3686L31.1882 16.5524ZM29.335 48.0239C29.335 49.3558 30.416 50.4368 31.748 50.4368C33.08 50.4368 34.161 49.3558 34.161 48.0239H29.335ZM31.748 44.1245V41.7116C31.7287 41.7116 31.7062 41.7116 31.6869 41.7116L31.748 44.1245ZM34.161 15.0531C34.161 13.7211 33.08 12.6401 31.748 12.6401C30.416 12.6401 29.335 13.7211 29.335 15.0531H34.161ZM25.6866 38.1564C25.1011 36.9596 23.6565 36.4642 22.4597 37.0497C21.2629 37.6352 20.7674 39.0798 21.3529 40.2766L25.6866 38.1564ZM37.552 24.7146C37.8641 26.0112 39.1703 26.8059 40.4669 26.4938C41.7634 26.1817 42.5549 24.8755 42.2428 23.5789L37.552 24.7146Z" fill="#0097EA"/>
</svg>
