<svg width="93" height="85" viewBox="0 0 93 85" fill="none" xmlns="http://www.w3.org/2000/svg">
<path opacity="0.65" d="M39.4909 9.6181C41.5155 4.18449 42.5278 1.46765 44.0779 0.672164C45.4089 -0.0108386 47.0427 -0.0108386 48.3736 0.672164C49.9237 1.46765 50.936 4.18449 52.9604 9.6181C56.5962 19.3749 60.9827 31.3692 64.1918 40.8502C67.3789 50.2668 71.1442 62.3452 74.1666 72.2521C75.8817 77.8753 76.7392 80.6864 75.9748 82.2037C75.3153 83.5117 74.0049 84.4283 72.5057 84.6297C70.7671 84.8635 68.2319 83.2116 63.1613 79.9073L50.3201 71.5384C48.842 70.5752 48.103 70.0938 47.3023 69.9067C46.5949 69.7416 45.8566 69.7416 45.1491 69.9067C44.3485 70.0938 43.6095 70.5752 42.1314 71.5384L29.2899 79.9073C24.2195 83.2116 21.6844 84.8635 19.9456 84.6297C18.4465 84.4283 17.1364 83.5117 16.4769 82.2037C15.7121 80.6864 16.5698 77.8753 18.2851 72.2521C21.3074 62.3452 25.0726 50.2668 28.2598 40.8502C31.4688 31.3692 35.8555 19.3749 39.4909 9.6181Z" fill="white"/>
<path d="M80.5182 29.0067C86.5271 29.1762 89.531 29.2607 90.7984 30.4302C91.8862 31.4342 92.3912 32.926 92.1257 34.3524C91.8166 36.0131 89.4379 37.777 84.6805 41.3047C76.1379 47.6387 65.611 55.3504 57.2101 61.2098C48.8658 67.0299 38.0637 74.1999 29.1828 80.021C24.1425 83.3243 21.6223 84.9761 19.883 84.7468C18.3833 84.5488 17.0706 83.6362 16.4075 82.3296C15.6385 80.8143 16.4919 77.9889 18.1986 72.3387L22.5211 58.0284C23.0186 56.3809 23.2674 55.5577 23.2051 54.7688C23.1502 54.0718 22.922 53.3979 22.5398 52.8026C22.1072 52.1296 21.4017 51.6036 19.9906 50.5519L7.73165 41.4133C2.89127 37.805 0.471074 36.0008 0.165528 34.3416C-0.0979254 32.9103 0.405042 31.4308 1.4972 30.4248C2.76386 29.2573 5.81406 29.1718 11.9145 29.0004C22.6633 28.6983 35.7924 28.4036 46.1064 28.4036C56.4907 28.4036 69.7288 28.7022 80.5182 29.0067Z" fill="white"/>
</svg>
