<svg width="85" height="85" viewBox="0 0 85 85" fill="none" xmlns="http://www.w3.org/2000/svg">
<path fill-rule="evenodd" clip-rule="evenodd" d="M12.7837 12.6541C20.3556 5.08223 30.8161 0.398926 42.3705 0.398926C53.9249 0.398926 64.3854 5.08223 71.9573 12.6541C79.5294 20.2262 84.2127 30.6867 84.2127 42.2411C84.2127 53.7955 79.5294 64.256 71.9573 71.8279C64.3854 79.4 53.9249 84.0833 42.3705 84.0833C30.8161 84.0833 20.3556 79.4 12.7837 71.8279C5.21162 64.256 0.52832 53.7955 0.52832 42.2411C0.52832 30.6867 5.21162 20.2262 12.7837 12.6541ZM42.6373 29.5989C38.4735 31.3672 30.1515 35.0273 17.6718 40.5788C15.6452 41.4016 14.5836 42.2066 14.487 42.9937C14.3236 44.3239 15.9551 44.8476 18.1768 45.5609C18.479 45.658 18.7921 45.7585 19.1131 45.8651C21.2989 46.5905 24.2392 47.4392 25.7677 47.4729C27.1542 47.5034 28.7017 46.9199 30.4103 45.722C42.0706 37.6855 48.0897 33.6235 48.4676 33.5359C48.7342 33.4741 49.1036 33.3965 49.3539 33.6236C49.6043 33.8508 49.5797 34.281 49.5532 34.3964C49.3915 35.0999 42.9873 41.179 39.6731 44.325C38.6399 45.3057 37.9071 46.0013 37.7573 46.1602C37.4216 46.5161 37.0795 46.8528 36.7509 47.1764C34.7202 49.175 33.1974 50.6739 36.8351 53.1215C38.5833 54.2977 39.9822 55.2704 41.3778 56.2407C42.9019 57.3004 44.422 58.3574 46.3888 59.6738C46.8899 60.0093 47.3685 60.3576 47.8346 60.6969C49.6084 61.9879 51.2019 63.1478 53.1705 62.9629C54.3145 62.8553 55.496 61.7571 56.0961 58.4816C57.5143 50.7406 60.3021 33.9682 60.9463 27.0567C61.0027 26.4511 60.9318 25.6762 60.8747 25.336C60.8177 24.9958 60.6985 24.5112 60.2655 24.1524C59.7525 23.7273 58.9607 23.6377 58.6065 23.6439C56.9964 23.6731 54.526 24.5501 42.6373 29.5989Z" fill="#0098EA"/>
</svg>
