<svg width="24" height="24" viewBox="0 0 24 24" fill="none" xmlns="http://www.w3.org/2000/svg">
<g clip-path="url(#clip0_2376_196)">
<path d="M9.2172 9.03979C8.19405 9.03979 7.54573 10.0741 8.06062 10.9108L11.4947 16.4893C11.7188 16.8535 12.2805 16.8535 12.5046 16.4893L15.9397 10.9103C16.4541 10.0755 15.8053 9.03979 14.7826 9.03979H9.2172ZM11.4922 14.8159L10.744 13.4595L8.93913 10.4344C8.91171 10.3892 8.89749 10.3381 8.89791 10.2861C8.89834 10.2341 8.91339 10.1832 8.94154 10.1384C8.9697 10.0936 9.00997 10.0566 9.05828 10.031C9.10658 10.0055 9.16123 9.99235 9.21669 9.99293H11.4906V14.8169L11.4917 14.8159H11.4922ZM15.0587 10.4339L13.2548 13.46L12.5067 14.8159V9.99198H14.7816C15.0312 9.99198 15.1778 10.2402 15.0587 10.4339Z" fill="white"/>
<path fill-rule="evenodd" clip-rule="evenodd" d="M19.6444 5.91667L12.7507 2.67795C12.2777 2.45632 11.721 2.45633 11.2481 2.67798L4.357 5.90737L7.2 7.25L6.04444 9.41667L2.68 7.83302V15.5165C2.68 16.0619 2.98117 16.5685 3.47606 16.8554L10.6667 21V18.3333H13.3333V20.9167L20.5334 16.7176C21.0229 16.4296 21.32 15.9259 21.32 15.3842V7.79153L17.9556 9.41667L16.7111 7.25L19.6444 5.91667ZM13.9492 0.431355C12.7217 -0.143815 11.2769 -0.143783 10.0495 0.43144L2.41006 4.01154C0.93301 4.70373 0 6.11863 0 7.66635V15.5165C0 16.932 0.781613 18.2466 2.06595 18.9914L9.64897 23.3886C11.0635 24.2089 12.8528 24.2034 14.2615 23.3744L21.9585 18.8448C23.2289 18.0972 24 16.7901 24 15.3842V7.66648C24 6.11869 23.0669 4.70374 21.5898 4.01158L13.9492 0.431355Z" fill="white"/>
</g>
<defs>
<clipPath id="clip0_2376_196">
<rect width="24" height="24" fill="white"/>
</clipPath>
</defs>
</svg>
