<svg width="49" height="49" viewBox="0 0 49 49" fill="none" xmlns="http://www.w3.org/2000/svg">
<path d="M9.29606 1.91856H40.3965C44.1951 1.91856 47.2745 4.99793 47.2745 8.79655V26.7391C47.2745 30.5377 44.1951 33.6171 40.3965 33.6171H28.3146C25.6973 33.6171 23.1873 34.6568 21.3366 36.5075L14.7151 43.129C14.15 43.6941 13.1836 43.2939 13.1836 42.4946V37.5047C13.1836 35.3576 11.4431 33.6171 9.29606 33.6171C5.49745 33.6171 2.41807 30.5377 2.41807 26.7391V8.79655C2.41807 4.99794 5.49745 1.91856 9.29606 1.91856Z" stroke="#0098EA" stroke-width="2.99043"/>
<rect x="9.29639" y="18.3655" width="11.9617" height="2.99043" fill="#0098EA"/>
<rect x="17.6697" y="24.3469" width="13.1579" height="2.99043" fill="#0098EA"/>
<rect x="9.29639" y="24.3469" width="7.17703" height="2.99043" fill="#0098EA"/>
<rect x="33.2197" y="24.3469" width="7.17703" height="2.99043" fill="#0098EA"/>
<rect x="23.6501" y="18.3655" width="16.7464" height="2.99043" fill="#0098EA"/>
</svg>
