<svg width="10" height="10" viewBox="0 0 10 10" fill="none" xmlns="http://www.w3.org/2000/svg">
<g clip-path="url(#clip0_2481_3009)">
<path fill-rule="evenodd" clip-rule="evenodd" d="M7.74121 1.13607V1.76514H8.79416H8.79502V1.76676C9.12758 1.76758 9.42904 1.89453 9.64671 2.10042C9.86266 2.30469 9.99741 2.58708 9.99827 2.89958H10V2.9012V8.86393V8.86475H9.99827C9.99741 9.17725 9.86266 9.46126 9.64412 9.66716C9.42731 9.87061 9.12758 9.99756 8.79589 9.99837V10H8.79416H3.46463H3.46376V9.99837C3.13207 9.99756 2.82975 9.87061 2.61208 9.66471C2.39613 9.46045 2.26138 9.17806 2.26052 8.86556H2.25879V8.86393V7.52848H1.20584H1.20498V7.52686C0.873283 7.52604 0.57096 7.39909 0.353287 7.1932C0.137341 6.98893 0.00259134 6.70654 0.00172756 6.39404H0V6.39242V1.13607V1.13525H0.00172756C0.00259134 0.82194 0.138205 0.537923 0.355878 0.332845C0.572687 0.129395 0.872419 0.00244141 1.20411 0.0016276V0H1.20584H6.53537H6.53624V0.0016276C6.86879 0.00244141 7.17025 0.129395 7.38792 0.335286C7.60387 0.539551 7.73862 0.82194 7.73948 1.13444H7.74121V1.13607ZM6.82733 1.76514V1.13607V1.13444H6.82906C6.82906 1.06038 6.79537 0.992025 6.74182 0.941569C6.68913 0.891927 6.6157 0.860189 6.5371 0.860189V0.861816H6.53624H1.2067H1.20498V0.860189C1.12637 0.860189 1.05381 0.891927 1.00026 0.942383C0.947568 0.992025 0.913881 1.0612 0.913881 1.13525H0.915609V1.13607V6.39242V6.39404H0.913881C0.913881 6.4681 0.947568 6.53646 1.00112 6.58691C1.05381 6.63656 1.12724 6.66829 1.20584 6.66829V6.66667H1.2067H2.25965V2.9012V2.90039H2.26138C2.26224 2.58708 2.39786 2.30306 2.61553 2.09798C2.83234 1.89453 3.13207 1.76758 3.46376 1.76676V1.76514H3.46549H6.82733ZM9.08526 8.86393V2.9012V2.89958H9.08698C9.08698 2.82552 9.0533 2.75716 8.99974 2.70671C8.94705 2.65706 8.87363 2.62533 8.79502 2.62533V2.62695H8.79416H3.46463H3.4629V2.62533C3.3843 2.62533 3.31174 2.65706 3.25818 2.70752C3.20549 2.75716 3.17181 2.82633 3.17181 2.90039H3.17353V2.9012V8.86393V8.86556H3.17181C3.17181 8.93962 3.20549 9.00798 3.25905 9.05843C3.31174 9.10807 3.38516 9.13981 3.46376 9.13981V9.13818H3.46463H8.79416H8.79589V9.13981C8.87449 9.13981 8.94705 9.10807 9.0006 9.05762C9.0533 9.00798 9.08698 8.9388 9.08698 8.86475H9.08526V8.86393Z" fill="white" fill-opacity="0.8"/>
</g>
<defs>
<clipPath id="clip0_2481_3009">
<rect width="10" height="10" fill="white"/>
</clipPath>
</defs>
</svg>
