<svg width="20" height="21" viewBox="0 0 20 21" fill="none" xmlns="http://www.w3.org/2000/svg">
<path d="M7.681 8.03316C6.82837 8.03316 6.28811 8.89506 6.71718 9.5923L9.57893 14.2411C9.76567 14.5446 10.2338 14.5446 10.4205 14.2411L13.2831 9.5919C13.7118 8.89625 13.1711 8.03316 12.3189 8.03316H7.681ZM9.57681 12.8466L8.95336 11.7162L7.44928 9.19535C7.42642 9.1577 7.41458 9.11506 7.41493 9.07175C7.41528 9.02843 7.42782 8.98597 7.45129 8.94865C7.47475 8.91133 7.5083 8.88047 7.54856 8.85919C7.58882 8.83791 7.63436 8.82696 7.68057 8.82744H9.57553V12.8474L9.57638 12.8466H9.57681ZM12.5489 9.19496L11.0457 11.7166L10.4222 12.8466V8.82665H12.318C12.526 8.82665 12.6482 9.03347 12.5489 9.19496Z" fill="white"/>
<path fill-rule="evenodd" clip-rule="evenodd" d="M16.3704 5.43056L10.6256 2.73162C10.2314 2.54693 9.76752 2.54694 9.37339 2.73165L3.63084 5.42281L6 6.54167L5.03704 8.34722L2.23333 7.02752V13.4304C2.23333 13.8849 2.48431 14.3071 2.89671 14.5462L8.88889 18V15.7778H11.1111V17.9306L17.1111 14.4314C17.5191 14.1913 17.7667 13.7716 17.7667 13.3202V6.99294L14.963 8.34722L13.9259 6.54167L16.3704 5.43056ZM11.6243 0.859463C10.6014 0.380154 9.39743 0.380181 8.37456 0.859533L2.00838 3.84295C0.777508 4.41978 0 5.59886 0 6.88863V13.4304C0 14.61 0.651344 15.7055 1.72163 16.3262L8.04081 19.9905C9.21959 20.6741 10.7107 20.6695 11.8846 19.9786L18.2988 16.204C19.3574 15.581 20 14.4917 20 13.3202V6.88874C20 5.59891 19.2224 4.41979 17.9915 3.84299L11.6243 0.859463Z" fill="white"/>
</svg>
