<svg width="62" height="78" viewBox="0 0 62 78" fill="none" xmlns="http://www.w3.org/2000/svg">
<g clip-path="url(#clip0_2005_696)">
<path d="M33.4525 37.8902C33.4525 36.3971 32.258 35.2024 30.7649 35.2024C29.2718 35.2024 28.0773 36.3971 28.0773 37.8902C28.0773 38.9353 28.6745 39.8311 29.5704 40.279L28.8985 43.0414C28.7492 43.564 29.1224 44.0119 29.645 44.0119H31.9594C32.482 44.0119 32.8553 43.564 32.7059 43.0414L32.0341 40.279C32.8552 39.8311 33.4525 38.9353 33.4525 37.8902Z" fill="#0098EA"/>
<path d="M30.7647 21.8394C28.3757 21.8394 26.36 23.7804 26.36 26.244V30.5741H35.1692V26.244C35.1692 23.8551 33.1537 21.8394 30.7647 21.8394Z" fill="#0098EA"/>
<path d="M60.2538 9.67024L31.1381 3.24984C30.9141 3.17518 30.69 3.17518 30.466 3.24984L1.35032 9.67024C0.603769 9.81954 0.0811768 10.4914 0.0811768 11.238V27.3637C0.0811768 42.8174 7.39743 57.3005 19.865 66.4086L29.8688 73.7994C30.4661 74.2473 31.2127 74.2473 31.81 73.7994L41.8136 66.4086C54.2067 57.3005 61.5228 42.7428 61.5228 27.3637V11.238C61.5228 10.4914 61.0003 9.81954 60.2538 9.67024ZM43.3069 47.0729C43.3069 47.894 42.6351 48.6406 41.7389 48.6406H19.7903C18.9691 48.6406 18.2225 47.9687 18.2225 47.0729V32.1416C18.2225 31.3205 18.8944 30.5738 19.7903 30.5738H22.0299V26.2438C22.0299 21.3912 25.9867 17.4344 30.8395 17.4344C35.6918 17.4344 39.574 21.4658 39.574 26.2438V30.5738H41.8136C42.6351 30.5738 43.3816 31.2458 43.3816 32.1416V47.0729H43.3069Z" fill="#0098EA"/>
</g>
<defs>
<clipPath id="clip0_2005_696">
<rect width="61.4417" height="76.8021" fill="white" transform="translate(0.0811768 0.328613)"/>
</clipPath>
</defs>
</svg>
