<svg width="78" height="78" viewBox="0 0 78 78" fill="none" xmlns="http://www.w3.org/2000/svg">
<g clip-path="url(#clip0_2005_705)">
<path fill-rule="evenodd" clip-rule="evenodd" d="M51.6576 28.8469H68.5716C69.9463 28.8468 71.3015 29.1867 72.5209 29.8379C73.7408 30.4891 74.79 31.4325 75.5789 32.588C76.3678 33.7435 76.8739 35.0772 77.0539 36.476C77.234 37.8748 77.083 39.2976 76.6136 40.6238L66.544 71.3496C65.3118 74.8219 64.4904 77.1307 58.502 77.1307C49.6638 77.1307 40.2603 74.2399 32.2348 71.7725C30.2191 71.1529 28.2903 70.5598 26.4793 70.0461H25.9916V27.969C33.0445 21.0171 39.1291 13.1 44.0734 4.44165C44.9127 2.83691 46.273 1.58401 47.9178 0.899957C49.5631 0.215901 51.3893 0.143782 53.0806 0.696089C54.772 1.24839 56.2222 2.39034 57.1793 3.92414C58.1363 5.45793 58.5408 7.28697 58.3223 9.09446L51.6576 28.8469ZM5.34543 30.1961H17.3928V64.3303C17.3928 69.0434 13.5722 72.8639 8.85925 72.8639C4.14629 72.8639 0.325684 69.0434 0.325684 64.3303V35.2158C0.325684 32.4435 2.5731 30.1961 5.34543 30.1961Z" fill="#0098EA"/>
</g>
<defs>
<clipPath id="clip0_2005_705">
<rect width="76.8021" height="76.8021" fill="white" transform="translate(0.325684 0.328613)"/>
</clipPath>
</defs>
</svg>
