<svg width="78" height="78" viewBox="0 0 78 78" fill="none" xmlns="http://www.w3.org/2000/svg">
<g clip-path="url(#clip0_2005_712)">
<path fill-rule="evenodd" clip-rule="evenodd" d="M74.2089 3.15978C75.1156 4.06666 75.7172 5.23366 75.9301 6.49842C77.1871 13.7991 78.733 28.6653 72.067 35.3435C64.5139 42.8851 35.8625 58.88 26.7913 63.8554C25.9883 64.2949 25.0642 64.4609 24.1585 64.3282C23.2528 64.1955 22.415 63.7718 21.7718 63.1203L18.0092 59.3617L14.2666 55.5911C13.6154 54.9477 13.1914 54.1097 13.0588 53.2043C12.9263 52.2984 13.0923 51.3743 13.5318 50.5713C18.499 41.4997 34.4932 12.8473 42.0425 5.2937C48.7042 -1.37245 63.5701 0.181641 70.8706 1.43857C72.1353 1.65126 73.3022 2.2529 74.2089 3.15978ZM10.5054 19.8519L27.5757 18.3981L16.0951 37.5171L3.9038 36.0875C3.11856 35.9794 2.37924 35.6537 1.7694 35.1474C1.15956 34.641 0.703539 33.9741 0.452883 33.2221C0.202226 32.4702 0.166934 31.663 0.350995 30.892C0.535057 30.121 0.931134 29.4168 1.49444 28.8592L10.5054 19.8519ZM58.9641 49.8066L57.5109 66.8772L48.5037 75.8886C47.9452 76.4463 47.2429 76.8371 46.4748 77.018C45.7068 77.1985 44.9034 77.1618 44.155 76.9114C43.407 76.6613 42.743 76.2078 42.2379 75.6015C41.7329 74.9956 41.4066 74.2604 41.2957 73.4792L39.4927 61.5002L58.9641 49.8066ZM62.5504 23.3124C62.5504 28.0031 58.7478 31.8056 54.0573 31.8056C49.3664 31.8056 45.5643 28.0031 45.5643 23.3124C45.5643 18.6216 49.3664 14.819 54.0573 14.819C58.7478 14.819 62.5504 18.6216 62.5504 23.3124Z" fill="#0098EA"/>
</g>
<defs>
<clipPath id="clip0_2005_712">
<rect width="76.8021" height="76.8021" fill="white" transform="translate(0.234863 0.328613)"/>
</clipPath>
</defs>
</svg>
