<svg width="78" height="78" viewBox="0 0 78 78" fill="none" xmlns="http://www.w3.org/2000/svg">
<g clip-path="url(#clip0_2005_831)">
<path fill-rule="evenodd" clip-rule="evenodd" d="M38.7871 0.393555C31.6593 0.393555 24.8234 3.22507 19.7833 8.26519C14.7431 13.3053 11.9116 20.1412 11.9116 27.269C8.85684 27.269 5.92718 28.4825 3.76712 30.6426C1.60706 32.8027 0.393555 35.7323 0.393555 38.7871V46.4658C0.393555 49.5204 1.60706 52.4502 3.76712 54.6102C5.92718 56.7703 8.85684 57.9839 11.9116 57.9839H15.751C17.8714 57.9839 19.5903 56.265 19.5903 54.1445V27.269C19.5903 22.1777 21.6128 17.295 25.2129 13.6949C28.813 10.0948 33.6958 8.07226 38.7871 8.07226C43.8785 8.07226 48.7614 10.0948 52.3611 13.6949C55.9613 17.295 57.9839 22.1777 57.9839 27.269V54.4632C57.9839 55.934 57.694 57.3903 57.1315 58.7491C56.5687 60.1078 55.7436 61.3425 54.7035 62.3822C53.6638 63.4223 52.4291 64.2474 51.0704 64.8102C49.7116 65.3727 48.2553 65.6626 46.7845 65.6626H46.4658C46.4658 61.4216 43.0281 57.9839 38.7871 57.9839H34.9477C30.7069 57.9839 27.269 61.4216 27.269 65.6626V69.5019C27.269 73.7429 30.7069 77.1806 34.9477 77.1806H38.7871C41.6294 77.1806 44.1108 75.6365 45.4384 73.3413H46.7845C49.2635 73.3413 51.7184 72.8529 54.009 71.9042C56.2992 70.9555 58.3805 69.5649 60.1331 67.8119C61.8862 66.0592 63.2768 63.9779 64.2255 61.6877C64.7212 60.4914 65.0909 59.2501 65.3313 57.9839H65.6626C68.7176 57.9839 71.647 56.7703 73.807 54.6102C75.967 52.4502 77.1806 49.5208 77.1806 46.4658V38.7871C77.1806 35.7323 75.967 32.8027 73.807 30.6426C71.647 28.4825 68.7176 27.269 65.6626 27.269C65.6626 20.1412 62.8311 13.3053 57.7908 8.26519C52.7508 3.22507 45.9149 0.393555 38.7871 0.393555ZM44.3565 12.9667C42.469 12.2329 40.4553 11.8796 38.4308 11.9272C36.4064 11.9747 34.4113 12.4223 32.5604 13.2439C30.7096 14.0655 29.0395 15.2451 27.6463 16.7147C26.1875 18.2536 26.2524 20.6836 27.7913 22.1425C29.3301 23.6013 31.7602 23.5364 33.219 21.9975C33.9156 21.2627 34.7506 20.673 35.676 20.2621C36.6015 19.8513 37.599 19.6276 38.6112 19.6038C39.6233 19.58 40.6304 19.7566 41.5741 20.1235C42.5178 20.4904 43.3797 21.0403 44.11 21.7416C45.6396 23.2102 48.0699 23.1609 49.5384 21.6314C51.007 20.1018 50.9579 17.6714 49.4283 16.2028C47.9678 14.8003 46.2439 13.7005 44.3565 12.9667Z" fill="#0098EA"/>
</g>
<defs>
<clipPath id="clip0_2005_831">
<rect width="76.7871" height="76.7871" fill="white" transform="translate(0.393555 0.393555)"/>
</clipPath>
</defs>
</svg>
