<svg width="77" height="78" viewBox="0 0 77 78" fill="none" xmlns="http://www.w3.org/2000/svg">
<path fill-rule="evenodd" clip-rule="evenodd" d="M25.7008 10.9029C29.6223 9.08616 33.9915 8.07226 38.5976 8.07226C49.9763 8.07226 59.9099 14.2598 65.2174 23.4539H62.3821C59.8857 23.4539 57.8624 24.4129 57.8624 26.9091C57.8624 28.1743 57.8624 34.7377 50.0858 34.6178C42.513 34.6178 42.513 27.9681 42.513 26.9091C42.513 21.4226 39.4911 20.5709 35.7876 19.5269C34.3522 19.1223 32.8143 18.6888 31.3103 17.9454C27.455 16.0399 26.1379 13.4047 25.7008 10.9029ZM15.5615 8.06946C13.292 9.77413 11.2176 11.7245 9.3777 13.8809C7.61264 15.9497 6.06338 18.2082 4.76487 20.6217C1.85505 26.0298 0.204102 32.2156 0.204102 38.7871C0.204102 59.0923 15.9671 75.7163 35.9239 77.0889C35.9932 77.0939 36.0626 77.0985 36.1319 77.1027C36.9472 77.1545 37.7693 77.1806 38.5976 77.1806C39.2584 77.1806 39.9153 77.1641 40.5676 77.1311L40.5734 77.1307C42.1848 77.049 43.77 76.8681 45.323 76.5936C45.5396 76.5552 45.7557 76.5153 45.9707 76.4734C46.0925 76.4496 46.2142 76.4255 46.3351 76.4005C49.3716 75.7793 52.2773 74.7995 55.0063 73.5075C62.8075 69.8145 69.1647 63.5694 73.0006 55.8503C73.3841 55.0783 73.7427 54.2912 74.0752 53.4903C74.1013 53.4269 74.1274 53.3632 74.1535 53.2995C74.9318 51.3952 75.5614 49.4137 76.0279 47.3707C76.092 47.0897 76.1531 46.8079 76.211 46.5246C76.7224 44.0255 76.9912 41.4378 76.9912 38.7871C76.9912 35.6016 76.603 32.5068 75.872 29.5472C75.8428 29.4286 75.8129 29.3102 75.7826 29.1919C75.1552 26.7541 74.2944 24.4099 73.2259 22.1847C67.0338 9.29333 53.8549 0.393555 38.5976 0.393555C32.9653 0.393555 27.6162 1.60638 22.7973 3.78512C21.0895 4.55726 19.4483 5.45068 17.8847 6.45444C17.6315 6.61696 17.3805 6.78232 17.1315 6.95056C16.5985 7.31065 16.075 7.68376 15.5615 8.06946ZM66.9021 50.7344C65.9795 50.4534 65.0097 50.3052 64.0203 50.3052H63.1899C55.9692 50.3052 50.1157 56.1586 50.1157 63.3793V67.2694C57.6716 64.2109 63.7331 58.2331 66.9021 50.7344ZM39.0342 69.4989C38.8887 69.5008 38.7435 69.5019 38.5976 69.5019C21.6343 69.5019 7.88281 55.7505 7.88281 38.7871C7.88281 33.1121 9.42189 27.7966 12.1054 23.2351C15.7569 25.3152 17.5618 29.1389 19.1529 32.5098C19.9524 34.2038 20.698 35.7834 21.5968 36.9699C23.6692 39.7055 25.6767 40.8815 27.7072 42.0709C29.7053 43.2415 31.7256 44.4248 33.8516 47.1204C39.3786 54.1276 39.2949 63.8854 39.0342 69.4989Z" fill="#0098EA"/>
</svg>
