<svg width="77" height="62" viewBox="0 0 77 62" fill="none" xmlns="http://www.w3.org/2000/svg">
<g clip-path="url(#clip0_2005_849)">
<path fill-rule="evenodd" clip-rule="evenodd" d="M38.3923 7.75098C30.9709 7.75098 24.9546 13.7672 24.9546 21.1887C24.9546 28.6102 30.9709 34.6265 38.3923 34.6265C45.8138 34.6265 51.8301 28.6102 51.8301 21.1887C51.8301 13.7672 45.8138 7.75098 38.3923 7.75098ZM32.6333 38.4658C24.1516 38.4658 17.2759 45.3417 17.2759 53.8232C17.2759 58.0642 20.7138 61.5019 24.9546 61.5019H51.8301C56.071 61.5019 59.5088 58.0642 59.5088 53.8232C59.5088 45.3417 52.6329 38.4658 44.1514 38.4658H32.6333Z" fill="#0098EA"/>
<path fill-rule="evenodd" clip-rule="evenodd" d="M58.815 26.5776C59.2676 24.8573 59.5088 23.0512 59.5088 21.1887C59.5088 13.018 54.8681 5.93108 48.0786 2.42C50.2386 0.938873 52.8529 0.0722656 55.6694 0.0722656C63.0909 0.0722656 69.1071 6.08853 69.1071 13.51C69.1071 19.8482 64.7188 25.1616 58.815 26.5776ZM67.1875 53.8232H69.1071C73.3481 53.8232 76.7859 50.3855 76.7859 46.1445C76.7859 37.6629 69.91 30.7871 61.4284 30.7871H57.2063C56.6815 31.8139 56.0748 32.792 55.3953 33.713C62.4317 37.6556 67.1875 45.1839 67.1875 53.8232Z" fill="#0098EA"/>
<path fill-rule="evenodd" clip-rule="evenodd" d="M7.67773 13.51C7.67773 6.08853 13.694 0.0722656 21.1155 0.0722656C23.9321 0.0722656 26.5464 0.938873 28.7062 2.42C21.9168 5.93108 17.2761 13.018 17.2761 21.1887C17.2761 23.0512 17.5172 24.8573 17.9699 26.5776C12.0659 25.1616 7.67773 19.8482 7.67773 13.51ZM19.5786 30.7871H15.3564C6.87477 30.7871 -0.000976562 37.6629 -0.000976562 46.1445C-0.000976562 50.3855 3.4369 53.8232 7.67773 53.8232H9.59741C9.59741 45.1839 14.3531 37.6556 21.3895 33.713C20.71 32.792 20.1035 31.8139 19.5786 30.7871Z" fill="#0098EA"/>
</g>
<defs>
<clipPath id="clip0_2005_849">
<rect width="76.7871" height="61.4297" fill="white" transform="translate(-0.000976562 0.0722656)"/>
</clipPath>
</defs>
</svg>
