<svg width="32" height="33" viewBox="0 0 32 33" fill="none" xmlns="http://www.w3.org/2000/svg">
<path d="M16 32.5C24.837 32.5 32 25.337 32 16.5C32 7.663 24.837 0.5 16 0.5C7.163 0.5 0 7.663 0 16.5C0 25.337 7.163 32.5 16 32.5Z" fill="#0098EA"/>
<path d="M21.4628 9.43005H10.5358C8.52681 9.43005 7.25381 11.5971 8.26481 13.3501L15.0078 25.0381C15.4478 25.8011 16.5508 25.8011 16.9908 25.0381L23.7358 13.3491C24.7458 11.6001 23.4718 9.43005 21.4638 9.43005H21.4628ZM15.0028 21.5321L13.5338 18.6901L9.98981 12.3521C9.93596 12.2574 9.90805 12.1502 9.90888 12.0413C9.90971 11.9324 9.93926 11.8256 9.99454 11.7318C10.0498 11.638 10.1289 11.5604 10.2238 11.5069C10.3186 11.4534 10.4259 11.4258 10.5348 11.4271H14.9998V21.5341L15.0018 21.5321H15.0028ZM22.0058 12.3511L18.4638 18.6911L16.9948 21.5321V11.4251H21.4618C21.9518 11.4251 22.2398 11.9451 22.0058 12.3511Z" fill="white"/>
</svg>
