<svg width="48" height="49" viewBox="0 0 48 49" fill="none" xmlns="http://www.w3.org/2000/svg">
<g clip-path="url(#clip0_2005_654)">
<g clip-path="url(#clip1_2005_654)">
<path d="M16.8253 38.0758L9.67773 41.9746C9.25829 42.2033 8.88134 42.4844 8.53061 42.7909C12.6978 46.3045 18.0773 48.4243 23.9548 48.4243C29.7889 48.4243 35.1339 46.3362 39.2894 42.8704C38.9061 42.5468 38.4903 42.2557 38.0293 42.0261L30.3755 38.1997C29.3866 37.7052 28.762 36.6946 28.762 35.5891V32.5861C28.9771 32.3412 29.223 32.0266 29.486 31.6551C30.5292 30.1816 31.3184 28.5608 31.8652 26.8605C32.8469 26.5577 33.5701 25.651 33.5701 24.5735V21.3681C33.5701 20.663 33.2564 20.0329 32.7692 19.5918V14.9581C32.7692 14.9581 33.7211 7.74731 23.9557 7.74731C14.1903 7.74731 15.1421 14.9581 15.1421 14.9581V19.5918C14.654 20.0329 14.3412 20.663 14.3412 21.3681V24.5735C14.3412 25.4178 14.7851 26.1608 15.4495 26.5902C16.2504 30.0768 18.3475 32.5861 18.3475 32.5861V35.5149C18.3466 36.5816 17.7627 37.5642 16.8253 38.0758Z" fill="#E7ECED"/>
<path d="M24.3642 0.51846C11.1367 0.292472 0.229558 10.8326 0.0035695 24.0601C-0.124792 31.5602 3.21803 38.301 8.5405 42.7837C8.88852 42.4799 9.26185 42.2015 9.67677 41.9755L16.8243 38.0768C17.7617 37.5652 18.3457 36.5826 18.3457 35.5141V32.5853C18.3457 32.5853 16.2476 30.0759 15.4476 26.5894C14.7841 26.16 14.3394 25.4178 14.3394 24.5726V21.3672C14.3394 20.6621 14.653 20.0321 15.1403 19.591V14.9573C15.1403 14.9573 14.1884 7.74647 23.9538 7.74647C33.7192 7.74647 32.7673 14.9573 32.7673 14.9573V19.591C33.2555 20.0321 33.5682 20.6621 33.5682 21.3672V24.5726C33.5682 25.6502 32.8451 26.5568 31.8634 26.8596C31.3165 28.56 30.5273 30.1808 29.4842 31.6542C29.2211 32.0257 28.9753 32.3403 28.7601 32.5853V35.5882C28.7601 36.6937 29.3848 37.7053 30.3737 38.1988L38.0274 42.0253C38.4866 42.2549 38.9016 42.545 39.2839 42.8677C44.4455 38.5631 47.7802 32.127 47.904 24.8791C48.1318 11.6515 37.5926 0.744448 24.3642 0.51846Z" fill="#556080"/>
</g>
</g>
<defs>
<clipPath id="clip0_2005_654">
<rect width="47.9095" height="47.9095" fill="white" transform="translate(0 0.514893)"/>
</clipPath>
<clipPath id="clip1_2005_654">
<rect width="47.9095" height="47.9095" fill="white" transform="translate(0 0.514893)"/>
</clipPath>
</defs>
</svg>
